%TF.GenerationSoftware,KiCad,Pcbnew,9.0.0*%
%TF.CreationDate,2025-05-09T11:29:12-04:00*%
%TF.ProjectId,ESP32 Ground Station,45535033-3220-4477-926f-756e64205374,rev?*%
%TF.SameCoordinates,Original*%
%TF.FileFunction,Copper,L4,Bot*%
%TF.FilePolarity,Positive*%
%FSLAX46Y46*%
G04 Gerber Fmt 4.6, Leading zero omitted, Abs format (unit mm)*
G04 Created by KiCad (PCBNEW 9.0.0) date 2025-05-09 11:29:12*
%MOMM*%
%LPD*%
G01*
G04 APERTURE LIST*
G04 Aperture macros list*
%AMRoundRect*
0 Rectangle with rounded corners*
0 $1 Rounding radius*
0 $2 $3 $4 $5 $6 $7 $8 $9 X,Y pos of 4 corners*
0 Add a 4 corners polygon primitive as box body*
4,1,4,$2,$3,$4,$5,$6,$7,$8,$9,$2,$3,0*
0 Add four circle primitives for the rounded corners*
1,1,$1+$1,$2,$3*
1,1,$1+$1,$4,$5*
1,1,$1+$1,$6,$7*
1,1,$1+$1,$8,$9*
0 Add four rect primitives between the rounded corners*
20,1,$1+$1,$2,$3,$4,$5,0*
20,1,$1+$1,$4,$5,$6,$7,0*
20,1,$1+$1,$6,$7,$8,$9,0*
20,1,$1+$1,$8,$9,$2,$3,0*%
%AMOutline5P*
0 Free polygon, 5 corners , with rotation*
0 The origin of the aperture is its center*
0 number of corners: always 5*
0 $1 to $10 corner X, Y*
0 $11 Rotation angle, in degrees counterclockwise*
0 create outline with 5 corners*
4,1,5,$1,$2,$3,$4,$5,$6,$7,$8,$9,$10,$1,$2,$11*%
%AMOutline6P*
0 Free polygon, 6 corners , with rotation*
0 The origin of the aperture is its center*
0 number of corners: always 6*
0 $1 to $12 corner X, Y*
0 $13 Rotation angle, in degrees counterclockwise*
0 create outline with 6 corners*
4,1,6,$1,$2,$3,$4,$5,$6,$7,$8,$9,$10,$11,$12,$1,$2,$13*%
%AMOutline7P*
0 Free polygon, 7 corners , with rotation*
0 The origin of the aperture is its center*
0 number of corners: always 7*
0 $1 to $14 corner X, Y*
0 $15 Rotation angle, in degrees counterclockwise*
0 create outline with 7 corners*
4,1,7,$1,$2,$3,$4,$5,$6,$7,$8,$9,$10,$11,$12,$13,$14,$1,$2,$15*%
%AMOutline8P*
0 Free polygon, 8 corners , with rotation*
0 The origin of the aperture is its center*
0 number of corners: always 8*
0 $1 to $16 corner X, Y*
0 $17 Rotation angle, in degrees counterclockwise*
0 create outline with 8 corners*
4,1,8,$1,$2,$3,$4,$5,$6,$7,$8,$9,$10,$11,$12,$13,$14,$15,$16,$1,$2,$17*%
G04 Aperture macros list end*
%TA.AperFunction,ComponentPad*%
%ADD10RoundRect,0.250000X-0.625000X0.350000X-0.625000X-0.350000X0.625000X-0.350000X0.625000X0.350000X0*%
%TD*%
%TA.AperFunction,ComponentPad*%
%ADD11O,1.750000X1.200000*%
%TD*%
%TA.AperFunction,ComponentPad*%
%ADD12R,2.000000X2.000000*%
%TD*%
%TA.AperFunction,ComponentPad*%
%ADD13C,2.000000*%
%TD*%
%TA.AperFunction,HeatsinkPad*%
%ADD14O,2.100000X1.000000*%
%TD*%
%TA.AperFunction,HeatsinkPad*%
%ADD15O,1.800000X1.000000*%
%TD*%
%TA.AperFunction,ComponentPad*%
%ADD16R,1.700000X1.700000*%
%TD*%
%TA.AperFunction,ComponentPad*%
%ADD17C,1.700000*%
%TD*%
%TA.AperFunction,ComponentPad*%
%ADD18O,1.200000X2.000000*%
%TD*%
%TA.AperFunction,SMDPad,CuDef*%
%ADD19R,5.080000X1.500000*%
%TD*%
%TA.AperFunction,SMDPad,CuDef*%
%ADD20RoundRect,0.200000X0.275000X-0.200000X0.275000X0.200000X-0.275000X0.200000X-0.275000X-0.200000X0*%
%TD*%
%TA.AperFunction,SMDPad,CuDef*%
%ADD21RoundRect,0.200000X0.200000X0.275000X-0.200000X0.275000X-0.200000X-0.275000X0.200000X-0.275000X0*%
%TD*%
%TA.AperFunction,SMDPad,CuDef*%
%ADD22RoundRect,0.200000X-0.275000X0.200000X-0.275000X-0.200000X0.275000X-0.200000X0.275000X0.200000X0*%
%TD*%
%TA.AperFunction,SMDPad,CuDef*%
%ADD23RoundRect,0.225000X-0.250000X0.225000X-0.250000X-0.225000X0.250000X-0.225000X0.250000X0.225000X0*%
%TD*%
%TA.AperFunction,SMDPad,CuDef*%
%ADD24RoundRect,0.150000X-0.512500X-0.150000X0.512500X-0.150000X0.512500X0.150000X-0.512500X0.150000X0*%
%TD*%
%TA.AperFunction,SMDPad,CuDef*%
%ADD25R,0.203200X0.660400*%
%TD*%
%TA.AperFunction,SMDPad,CuDef*%
%ADD26R,1.600200X0.990600*%
%TD*%
%TA.AperFunction,SMDPad,CuDef*%
%ADD27RoundRect,0.200000X-0.200000X-0.275000X0.200000X-0.275000X0.200000X0.275000X-0.200000X0.275000X0*%
%TD*%
%TA.AperFunction,SMDPad,CuDef*%
%ADD28RoundRect,0.225000X0.225000X0.250000X-0.225000X0.250000X-0.225000X-0.250000X0.225000X-0.250000X0*%
%TD*%
%TA.AperFunction,SMDPad,CuDef*%
%ADD29RoundRect,0.225000X-0.225000X-0.250000X0.225000X-0.250000X0.225000X0.250000X-0.225000X0.250000X0*%
%TD*%
%TA.AperFunction,SMDPad,CuDef*%
%ADD30R,0.700000X0.450000*%
%TD*%
%TA.AperFunction,SMDPad,CuDef*%
%ADD31R,1.200000X0.400000*%
%TD*%
%TA.AperFunction,SMDPad,CuDef*%
%ADD32R,1.400000X0.950000*%
%TD*%
%TA.AperFunction,SMDPad,CuDef*%
%ADD33R,1.000000X1.300000*%
%TD*%
%TA.AperFunction,SMDPad,CuDef*%
%ADD34R,0.400000X1.400000*%
%TD*%
%TA.AperFunction,SMDPad,CuDef*%
%ADD35R,1.400000X1.300000*%
%TD*%
%TA.AperFunction,SMDPad,CuDef*%
%ADD36RoundRect,0.150000X0.150000X-0.512500X0.150000X0.512500X-0.150000X0.512500X-0.150000X-0.512500X0*%
%TD*%
%TA.AperFunction,SMDPad,CuDef*%
%ADD37RoundRect,0.218750X0.256250X-0.218750X0.256250X0.218750X-0.256250X0.218750X-0.256250X-0.218750X0*%
%TD*%
%TA.AperFunction,SMDPad,CuDef*%
%ADD38R,0.800000X0.400000*%
%TD*%
%TA.AperFunction,SMDPad,CuDef*%
%ADD39R,0.400000X0.800000*%
%TD*%
%TA.AperFunction,HeatsinkPad*%
%ADD40R,1.200000X1.200000*%
%TD*%
%TA.AperFunction,HeatsinkPad*%
%ADD41Outline5P,-0.600000X0.600000X0.600000X0.600000X0.600000X-0.600000X-0.204000X-0.600000X-0.600000X-0.204000X180.000000*%
%TD*%
%TA.AperFunction,SMDPad,CuDef*%
%ADD42R,0.800000X0.800000*%
%TD*%
%TA.AperFunction,ViaPad*%
%ADD43C,0.600000*%
%TD*%
%TA.AperFunction,Conductor*%
%ADD44C,0.300000*%
%TD*%
%TA.AperFunction,Conductor*%
%ADD45C,0.500000*%
%TD*%
%TA.AperFunction,Conductor*%
%ADD46C,0.200000*%
%TD*%
G04 APERTURE END LIST*
D10*
%TO.P,J2,1,Pin_1*%
%TO.N,VBAT*%
X207450000Y-105999999D03*
D11*
%TO.P,J2,2,Pin_2*%
%TO.N,GND*%
X207450000Y-107999999D03*
%TD*%
D12*
%TO.P,BZ1,1,+*%
%TO.N,/BZ_IO*%
X215000000Y-93500000D03*
D13*
%TO.P,BZ1,2,-*%
%TO.N,GND*%
X210000000Y-93500000D03*
%TD*%
D14*
%TO.P,J3,S1,SHIELD*%
%TO.N,GND*%
X228895000Y-84000000D03*
D15*
X233075000Y-84000000D03*
D14*
X228895000Y-75360000D03*
D15*
X233075000Y-75360000D03*
%TD*%
D16*
%TO.P,J5,1,Pin_1*%
%TO.N,GND*%
X200000000Y-78000000D03*
D17*
%TO.P,J5,2,Pin_2*%
X202540000Y-78000000D03*
%TO.P,J5,3,Pin_3*%
%TO.N,+3v3*%
X200000000Y-80540000D03*
%TO.P,J5,4,Pin_4*%
X202540000Y-80540000D03*
%TO.P,J5,5,Pin_5*%
%TO.N,/TX*%
X200000000Y-83080000D03*
%TO.P,J5,6,Pin_6*%
%TO.N,/SDA*%
X202540000Y-83080000D03*
%TO.P,J5,7,Pin_7*%
%TO.N,/RX*%
X200000000Y-85620000D03*
%TO.P,J5,8,Pin_8*%
%TO.N,/SCL*%
X202540000Y-85620000D03*
%TO.P,J5,9,Pin_9*%
%TO.N,/EN*%
X200000000Y-88160000D03*
%TO.P,J5,10,Pin_10*%
%TO.N,/SPI2_MISO*%
X202540000Y-88160000D03*
%TO.P,J5,11,Pin_11*%
%TO.N,/IO0*%
X200000000Y-90700000D03*
%TO.P,J5,12,Pin_12*%
%TO.N,/SPI2_MOSI*%
X202540000Y-90700000D03*
%TO.P,J5,13,Pin_13*%
%TO.N,/TX1*%
X200000000Y-93240000D03*
%TO.P,J5,14,Pin_14*%
%TO.N,/SPI2_SCK*%
X202540000Y-93240000D03*
%TO.P,J5,15,Pin_15*%
%TO.N,/RX1*%
X200000000Y-95780000D03*
%TO.P,J5,16,Pin_16*%
%TO.N,/IO47*%
X202540000Y-95780000D03*
%TO.P,J5,17,Pin_17*%
%TO.N,/IO16*%
X200000000Y-98320000D03*
%TO.P,J5,18,Pin_18*%
%TO.N,/IO48*%
X202540000Y-98320000D03*
%TO.P,J5,19,Pin_19*%
%TO.N,GND*%
X200000000Y-100860000D03*
%TO.P,J5,20,Pin_20*%
X202540000Y-100860000D03*
%TD*%
D18*
%TO.P,SW1,1,A*%
%TO.N,/PWR_EN*%
X222000000Y-88500000D03*
%TO.P,SW1,2,B*%
%TO.N,/SW*%
X222000000Y-95500000D03*
%TD*%
D19*
%TO.P,J4,2,Ext*%
%TO.N,GND*%
X233410000Y-100250000D03*
X233410000Y-108750000D03*
%TD*%
D20*
%TO.P,R4,1*%
%TO.N,/CC2*%
X231000000Y-77325000D03*
%TO.P,R4,2*%
%TO.N,GND*%
X231000000Y-75675000D03*
%TD*%
D21*
%TO.P,R19,1*%
%TO.N,VBAT*%
X205875000Y-102500000D03*
%TO.P,R19,2*%
%TO.N,/BAT_MEAS*%
X204225000Y-102500000D03*
%TD*%
%TO.P,R14,1*%
%TO.N,GND*%
X217825000Y-101000000D03*
%TO.P,R14,2*%
%TO.N,/PWR_EN*%
X216175000Y-101000000D03*
%TD*%
D22*
%TO.P,R2,1*%
%TO.N,GND*%
X210000000Y-95675000D03*
%TO.P,R2,2*%
%TO.N,/ISET*%
X210000000Y-97325000D03*
%TD*%
D23*
%TO.P,C10,1*%
%TO.N,GND*%
X219375000Y-102850000D03*
%TO.P,C10,2*%
%TO.N,+4v5-2*%
X219375000Y-104400000D03*
%TD*%
D24*
%TO.P,U5,1,VIN*%
%TO.N,+4v5-1*%
X215362500Y-104450000D03*
%TO.P,U5,2,GND*%
%TO.N,GND*%
X215362500Y-103500000D03*
%TO.P,U5,3,ON*%
%TO.N,/PWR_EN*%
X215362500Y-102550000D03*
%TO.P,U5,4,CT*%
%TO.N,unconnected-(U5-CT-Pad4)*%
X217637500Y-102550000D03*
%TO.P,U5,5,QOD*%
%TO.N,+4v5-2*%
X217637500Y-103500000D03*
%TO.P,U5,6,VOUT*%
X217637500Y-104450000D03*
%TD*%
D25*
%TO.P,U6,1,SYS*%
%TO.N,+4v5-1*%
X210300100Y-101630300D03*
%TO.P,U6,2,BAT*%
%TO.N,VBAT*%
X209900050Y-101630300D03*
%TO.P,U6,3,STAT2*%
%TO.N,/BAT_STAT_2*%
X209500000Y-101630300D03*
%TO.P,U6,4,/CE*%
%TO.N,GND*%
X209099950Y-101630300D03*
%TO.P,U6,5,GND*%
X208699900Y-101630300D03*
%TO.P,U6,6,TS/MR*%
%TO.N,/TSMR*%
X208699900Y-99369700D03*
%TO.P,U6,7,ILIM/VSET*%
%TO.N,/ILIM*%
X209099950Y-99369700D03*
%TO.P,U6,8,ISET*%
%TO.N,/ISET*%
X209500000Y-99369700D03*
%TO.P,U6,9,STAT1*%
%TO.N,/BAT_STAT_1*%
X209900050Y-99369700D03*
%TO.P,U6,10,IN*%
%TO.N,VBUS*%
X210300100Y-99369700D03*
D26*
%TO.P,U6,11,EPAD*%
%TO.N,GND*%
X209500000Y-100500000D03*
%TD*%
D21*
%TO.P,R6,1*%
%TO.N,/SD_DATA2*%
X225075000Y-95750000D03*
%TO.P,R6,2*%
%TO.N,+3v3*%
X223425000Y-95750000D03*
%TD*%
D27*
%TO.P,R15,1*%
%TO.N,+3v3*%
X202100000Y-75000000D03*
%TO.P,R15,2*%
%TO.N,/EN*%
X203750000Y-75000000D03*
%TD*%
D22*
%TO.P,R13,1*%
%TO.N,/DPWR3*%
X228500000Y-99800000D03*
%TO.P,R13,2*%
%TO.N,+3v3*%
X228500000Y-101450000D03*
%TD*%
D28*
%TO.P,C1,1*%
%TO.N,GND*%
X213275000Y-99500000D03*
%TO.P,C1,2*%
%TO.N,VBUS*%
X211725000Y-99500000D03*
%TD*%
D22*
%TO.P,R22,1*%
%TO.N,/DPWR5*%
X225625000Y-74300000D03*
%TO.P,R22,2*%
%TO.N,VBUS*%
X225625000Y-75950000D03*
%TD*%
D29*
%TO.P,C3,1*%
%TO.N,GND*%
X207735000Y-103180000D03*
%TO.P,C3,2*%
%TO.N,VBAT*%
X209285000Y-103180000D03*
%TD*%
D21*
%TO.P,R8,1*%
%TO.N,/SD_CMD*%
X225075000Y-92750000D03*
%TO.P,R8,2*%
%TO.N,+3v3*%
X223425000Y-92750000D03*
%TD*%
%TO.P,R10,1*%
%TO.N,/SD_DATA0*%
X225075000Y-89750000D03*
%TO.P,R10,2*%
%TO.N,+3v3*%
X223425000Y-89750000D03*
%TD*%
D22*
%TO.P,R1,1*%
%TO.N,GND*%
X208500000Y-95675000D03*
%TO.P,R1,2*%
%TO.N,/ILIM*%
X208500000Y-97325000D03*
%TD*%
%TO.P,R16,1*%
%TO.N,/LED_BAT*%
X221500000Y-75300000D03*
%TO.P,R16,2*%
%TO.N,/DSTAT1*%
X221500000Y-76950000D03*
%TD*%
D21*
%TO.P,R7,1*%
%TO.N,/SD_DATA3*%
X225075000Y-94250000D03*
%TO.P,R7,2*%
%TO.N,+3v3*%
X223425000Y-94250000D03*
%TD*%
D22*
%TO.P,R17,1*%
%TO.N,/DSTAT2*%
X223050000Y-75300000D03*
%TO.P,R17,2*%
%TO.N,/LED_BAT*%
X223050000Y-76950000D03*
%TD*%
D30*
%TO.P,J1,1,DAT2*%
%TO.N,/SD_DATA2*%
X233635000Y-95180000D03*
%TO.P,J1,2,DAT3/CD*%
%TO.N,/SD_DATA3*%
X233635000Y-94480000D03*
%TO.P,J1,3,CMD*%
%TO.N,/SD_CMD*%
X233635000Y-93780000D03*
%TO.P,J1,4,VDD*%
%TO.N,+3v3*%
X233635000Y-93080000D03*
%TO.P,J1,5,CLK*%
%TO.N,/SD_CLK*%
X233635000Y-91380000D03*
%TO.P,J1,6,VSS*%
%TO.N,GND*%
X233635000Y-90680000D03*
%TO.P,J1,7,DAT0*%
%TO.N,/SD_DATA0*%
X233635000Y-89280000D03*
%TO.P,J1,8,DAT1*%
%TO.N,/SD_DATA1*%
X233635000Y-88580000D03*
%TO.P,J1,9,DET*%
%TO.N,/SD_CD*%
X233635000Y-89980000D03*
D31*
%TO.P,J1,10,SHIELD*%
%TO.N,GND*%
X231875000Y-86250000D03*
X229275000Y-86250000D03*
D32*
X234175000Y-86525000D03*
D33*
X226915000Y-86700000D03*
D34*
X226615000Y-89860000D03*
X226615000Y-94110000D03*
D35*
X234175000Y-97300000D03*
D33*
X226915000Y-97300000D03*
D31*
X231875000Y-97750000D03*
X229275000Y-97750000D03*
%TD*%
D21*
%TO.P,R12,1*%
%TO.N,/SD_CD*%
X225075000Y-91250000D03*
%TO.P,R12,2*%
%TO.N,+3v3*%
X223425000Y-91250000D03*
%TD*%
D36*
%TO.P,U3,1,VIN*%
%TO.N,+4v5-2*%
X222950000Y-102387500D03*
%TO.P,U3,2,GND*%
%TO.N,GND*%
X222000000Y-102387500D03*
%TO.P,U3,3,CE*%
%TO.N,+4v5-2*%
X221050000Y-102387500D03*
%TO.P,U3,4,NC*%
%TO.N,unconnected-(U3-NC-Pad4)*%
X221050000Y-100112500D03*
%TO.P,U3,5,VOUT*%
%TO.N,+3v3*%
X222950000Y-100112500D03*
%TD*%
D28*
%TO.P,C2,1*%
%TO.N,GND*%
X213280000Y-101580000D03*
%TO.P,C2,2*%
%TO.N,+4v5-1*%
X211730000Y-101580000D03*
%TD*%
%TO.P,C4,1*%
%TO.N,GND*%
X217775000Y-99499997D03*
%TO.P,C4,2*%
%TO.N,/PWR_EN*%
X216225000Y-99499997D03*
%TD*%
D21*
%TO.P,R11,1*%
%TO.N,/SD_DATA1*%
X225075000Y-88250000D03*
%TO.P,R11,2*%
%TO.N,+3v3*%
X223425000Y-88250000D03*
%TD*%
D28*
%TO.P,C11,1*%
%TO.N,GND*%
X226275000Y-100000000D03*
%TO.P,C11,2*%
%TO.N,+3v3*%
X224725000Y-100000000D03*
%TD*%
D37*
%TO.P,D5,1,K*%
%TO.N,/SW*%
X213250000Y-104787501D03*
%TO.P,D5,2,A*%
%TO.N,+4v5-1*%
X213250000Y-103212499D03*
%TD*%
D38*
%TO.P,U1,1,GND*%
%TO.N,GND*%
X219400000Y-75050000D03*
%TO.P,U1,2,GND*%
X219400000Y-75900000D03*
%TO.P,U1,3,3V3*%
%TO.N,+3v3*%
X219400000Y-76750000D03*
%TO.P,U1,4,IO0*%
%TO.N,/IO0*%
X219400000Y-77600000D03*
%TO.P,U1,5,IO1*%
%TO.N,/SD_CLK*%
X219400000Y-78450000D03*
%TO.P,U1,6,IO2*%
%TO.N,/SD_CMD*%
X219400000Y-79300000D03*
%TO.P,U1,7,IO3*%
%TO.N,/SD_DATA0*%
X219400000Y-80150000D03*
%TO.P,U1,8,IO4*%
%TO.N,/SD_DATA1*%
X219400000Y-81000000D03*
%TO.P,U1,9,IO5*%
%TO.N,/SD_DATA2*%
X219400000Y-81850000D03*
%TO.P,U1,10,IO6*%
%TO.N,/SD_DATA3*%
X219400000Y-82700000D03*
%TO.P,U1,11,IO7*%
%TO.N,/SD_CD*%
X219400000Y-83550000D03*
%TO.P,U1,12,IO8*%
%TO.N,/SDA*%
X219400000Y-84400000D03*
%TO.P,U1,13,IO9*%
%TO.N,/SCL*%
X219400000Y-85250000D03*
%TO.P,U1,14,IO10*%
%TO.N,/BAT_MEAS*%
X219400000Y-86100000D03*
%TO.P,U1,15,IO11*%
%TO.N,/SPI2_MOSI*%
X219400000Y-86950000D03*
D39*
%TO.P,U1,16,IO12*%
%TO.N,/SPI2_MISO*%
X218350000Y-88000000D03*
%TO.P,U1,17,IO13*%
%TO.N,/SPI2_SCK*%
X217500000Y-88000000D03*
%TO.P,U1,18,IO14*%
%TO.N,/SPI2_CS1*%
X216650000Y-88000000D03*
%TO.P,U1,19,IO15*%
%TO.N,/BAT_STAT_1*%
X215800000Y-88000000D03*
%TO.P,U1,20,IO16*%
%TO.N,/IO16*%
X214950000Y-88000000D03*
%TO.P,U1,21,IO17*%
%TO.N,/TX1*%
X214100000Y-88000000D03*
%TO.P,U1,22,IO18*%
%TO.N,/RX1*%
X213250000Y-88000000D03*
%TO.P,U1,23,USB_D-*%
%TO.N,/D-*%
X212400000Y-88000000D03*
%TO.P,U1,24,USB_D+*%
%TO.N,/D+*%
X211550000Y-88000000D03*
%TO.P,U1,25,IO21*%
%TO.N,/LED_BAT*%
X210700000Y-88000000D03*
%TO.P,U1,26,IO26*%
%TO.N,unconnected-(U1-IO26-Pad26)*%
X209850000Y-88000000D03*
%TO.P,U1,27,IO47*%
%TO.N,/IO47*%
X209000000Y-88000000D03*
%TO.P,U1,28,IO33*%
%TO.N,/BZ_IO*%
X208150000Y-88000000D03*
%TO.P,U1,29,IO34*%
%TO.N,/LED_GPIO*%
X207300000Y-88000000D03*
%TO.P,U1,30,IO48*%
%TO.N,/IO48*%
X206450000Y-88000000D03*
D38*
%TO.P,U1,31,IO35*%
%TO.N,/RAD_IO8*%
X205400000Y-86950000D03*
%TO.P,U1,32,IO36*%
%TO.N,/RAD_IO9*%
X205400000Y-86100000D03*
%TO.P,U1,33,IO37*%
%TO.N,/RAD_BUSY*%
X205400000Y-85250000D03*
%TO.P,U1,34,IO38*%
%TO.N,/RAD_NRST*%
X205400000Y-84400000D03*
%TO.P,U1,35,IO39*%
%TO.N,unconnected-(U1-IO39-Pad35)*%
X205400000Y-83550000D03*
%TO.P,U1,36,IO40*%
%TO.N,unconnected-(U1-IO40-Pad36)*%
X205400000Y-82700000D03*
%TO.P,U1,37,IO41*%
%TO.N,unconnected-(U1-IO41-Pad37)*%
X205400000Y-81850000D03*
%TO.P,U1,38,IO42*%
%TO.N,unconnected-(U1-IO42-Pad38)*%
X205400000Y-81000000D03*
%TO.P,U1,39,TXD0*%
%TO.N,/TX*%
X205400000Y-80150000D03*
%TO.P,U1,40,RXD0*%
%TO.N,/RX*%
X205400000Y-79300000D03*
%TO.P,U1,41,IO45*%
%TO.N,unconnected-(U1-IO45-Pad41)*%
X205400000Y-78450000D03*
%TO.P,U1,42,GND*%
%TO.N,GND*%
X205400000Y-77600000D03*
%TO.P,U1,43,GND*%
X205400000Y-76750000D03*
%TO.P,U1,44,IO46*%
%TO.N,unconnected-(U1-IO46-Pad44)*%
X205400000Y-75900000D03*
%TO.P,U1,45,EN*%
%TO.N,/EN*%
X205400000Y-75050000D03*
D39*
%TO.P,U1,46,GND*%
%TO.N,GND*%
X206450000Y-74000000D03*
%TO.P,U1,47,GND*%
X207300000Y-74000000D03*
%TO.P,U1,48,GND*%
X208150000Y-74000000D03*
%TO.P,U1,49,GND*%
X209000000Y-74000000D03*
%TO.P,U1,50,GND*%
X209850000Y-74000000D03*
%TO.P,U1,51,GND*%
X210700000Y-74000000D03*
%TO.P,U1,52,GND*%
X211550000Y-74000000D03*
%TO.P,U1,53,GND*%
X212400000Y-74000000D03*
%TO.P,U1,54,GND*%
X213250000Y-74000000D03*
%TO.P,U1,55,GND*%
X214100000Y-74000000D03*
%TO.P,U1,56,GND*%
X214950000Y-74000000D03*
%TO.P,U1,57,GND*%
X215800000Y-74000000D03*
%TO.P,U1,58,GND*%
X216650000Y-74000000D03*
%TO.P,U1,59,GND*%
X217500000Y-74000000D03*
%TO.P,U1,60,GND*%
X218350000Y-74000000D03*
D40*
%TO.P,U1,61,GND*%
X214050000Y-82650000D03*
X214050000Y-81000000D03*
D41*
X214050000Y-79350000D03*
D40*
X212400000Y-82650000D03*
X212400000Y-81000000D03*
X212400000Y-79350000D03*
X210750000Y-82650000D03*
X210750000Y-81000000D03*
X210750000Y-79350000D03*
D42*
%TO.P,U1,62,GND*%
X219400000Y-74000000D03*
%TO.P,U1,63,GND*%
X219400000Y-88000000D03*
%TO.P,U1,64,GND*%
X205400000Y-88000000D03*
%TO.P,U1,65,GND*%
X205400000Y-74000000D03*
%TD*%
D37*
%TO.P,D4,1,K*%
%TO.N,/PWR_EN*%
X215000000Y-97787501D03*
%TO.P,D4,2,A*%
%TO.N,VBUS*%
X215000000Y-96212499D03*
%TD*%
D22*
%TO.P,R3,1*%
%TO.N,/CC1*%
X231000000Y-82050000D03*
%TO.P,R3,2*%
%TO.N,GND*%
X231000000Y-83700000D03*
%TD*%
%TO.P,R5,1*%
%TO.N,GND*%
X207019999Y-95675000D03*
%TO.P,R5,2*%
%TO.N,/TSMR*%
X207019999Y-97325000D03*
%TD*%
D21*
%TO.P,R20,1*%
%TO.N,GND*%
X205875000Y-100500000D03*
%TO.P,R20,2*%
%TO.N,/BAT_MEAS*%
X204225000Y-100500000D03*
%TD*%
D43*
%TO.N,GND*%
X219750000Y-101375000D03*
X218875000Y-89375000D03*
X214125000Y-99500000D03*
X224500000Y-78000000D03*
X219998325Y-106778254D03*
X215750000Y-77500000D03*
X220625000Y-101250000D03*
X210750000Y-79375000D03*
X223375000Y-103625000D03*
X208125000Y-75000000D03*
X227250000Y-82875000D03*
X215222120Y-101572120D03*
X220020219Y-105318692D03*
X226000000Y-90500000D03*
X214000000Y-81000000D03*
X218625000Y-101500000D03*
X216506908Y-103878070D03*
X225375000Y-109750000D03*
X205199000Y-89202473D03*
X214625000Y-109750000D03*
X218502274Y-106763658D03*
X223375000Y-108625000D03*
X227250000Y-94000000D03*
X221500000Y-105250000D03*
X206625000Y-100500000D03*
X223875000Y-100862500D03*
X226631405Y-85104934D03*
X210750000Y-74804837D03*
X216750000Y-106000000D03*
X230500000Y-108750000D03*
X210875000Y-100500000D03*
X210750000Y-102875000D03*
X225000000Y-77250000D03*
X218850000Y-98375000D03*
X210750000Y-82625000D03*
X227125000Y-76500000D03*
X214050000Y-79350000D03*
X226750000Y-106000000D03*
X207000000Y-103250000D03*
X232625000Y-90750000D03*
X204000000Y-74000000D03*
X210750000Y-81000000D03*
X229750000Y-106875000D03*
X212375000Y-81000000D03*
X226600000Y-79625000D03*
X224949000Y-101125000D03*
X220000000Y-108625000D03*
X216625000Y-74875000D03*
X225875000Y-97501000D03*
X230500000Y-100250000D03*
X216750000Y-108625000D03*
X208026000Y-100500000D03*
X212375000Y-79350000D03*
X223375000Y-106000000D03*
X212400000Y-82625000D03*
X226900000Y-101125000D03*
X218513384Y-105301284D03*
X208026000Y-101625000D03*
X220750000Y-74000000D03*
X214125000Y-74875000D03*
X220250000Y-103750000D03*
X214050000Y-82650000D03*
X221487078Y-106785551D03*
X204470000Y-76835000D03*
%TO.N,/BZ_IO*%
X207250000Y-91625000D03*
X206176472Y-94350000D03*
X211650000Y-95272120D03*
X207125000Y-93125000D03*
%TO.N,VBUS*%
X225832255Y-77957255D03*
X225832255Y-81292745D03*
%TO.N,/BAT_STAT_2*%
X235200000Y-92125000D03*
X228000000Y-74125000D03*
X222000000Y-74000000D03*
%TO.N,/EN*%
X198800000Y-86405959D03*
X202750000Y-74000000D03*
%TO.N,/IO16*%
X203564330Y-84819533D03*
X209000000Y-83375000D03*
%TO.N,/RX1*%
X208875000Y-85073000D03*
X203723027Y-88874497D03*
%TO.N,+3v3*%
X225125000Y-84500000D03*
X232750000Y-92625000D03*
X221862500Y-98975000D03*
X222750000Y-82125000D03*
X224250000Y-92001119D03*
X204125000Y-76125000D03*
X206437500Y-76937500D03*
%TO.N,/IO0*%
X206479331Y-78372177D03*
%TO.N,/TX1*%
X208875000Y-84272997D03*
%TO.N,/SPI2_MISO*%
X211895564Y-91484754D03*
X209875000Y-111200000D03*
X217768612Y-110834149D03*
%TO.N,/SCL*%
X206937500Y-80562500D03*
X203341771Y-84103313D03*
%TO.N,/IO47*%
X208875000Y-90998000D03*
X208102880Y-92352880D03*
%TO.N,/SPI2_SCK*%
X203966611Y-92190323D03*
X226250000Y-103000000D03*
X216450870Y-86709590D03*
X220000000Y-110750000D03*
%TO.N,/IO48*%
X206131289Y-89967240D03*
X206235325Y-93063205D03*
%TO.N,/SDA*%
X206559706Y-79230360D03*
%TO.N,/SPI2_MOSI*%
X204750293Y-92255171D03*
X225625000Y-104000000D03*
X219211932Y-110612331D03*
X215800870Y-86125000D03*
%TO.N,/SD_DATA2*%
X232625000Y-95500000D03*
X227500000Y-96000000D03*
X217875000Y-81875000D03*
%TO.N,/SD_DATA3*%
X218525000Y-82750000D03*
X232625000Y-94500000D03*
X227625000Y-95000000D03*
%TO.N,/SD_CMD*%
X227750000Y-92625000D03*
X218000000Y-79625000D03*
X232625000Y-93625000D03*
%TO.N,/SD_DATA0*%
X227625000Y-89000000D03*
X232625000Y-89000000D03*
X220875000Y-80250000D03*
%TO.N,/SD_DATA1*%
X227750000Y-88125000D03*
X232625000Y-87625000D03*
X221000000Y-81375000D03*
%TO.N,/SD_CD*%
X232616100Y-89911518D03*
X227500000Y-90625000D03*
X220750000Y-83750000D03*
%TO.N,/LED_BAT*%
X210625000Y-86000000D03*
X220375000Y-76050000D03*
%TO.N,/LED_GPIO*%
X204151438Y-82276438D03*
%TO.N,/RAD_IO9*%
X207300003Y-86875000D03*
%TO.N,/RAD_IO8*%
X206500000Y-86875000D03*
%TO.N,/D-*%
X212374999Y-86000000D03*
%TO.N,/RAD_NRST*%
X208900009Y-86875000D03*
%TO.N,/RAD_BUSY*%
X208775000Y-89149000D03*
X208100006Y-86875000D03*
X210350000Y-90198000D03*
%TO.N,/SPI2_CS1*%
X211750000Y-90698106D03*
%TO.N,/D+*%
X211574996Y-86000000D03*
%TO.N,/BAT_STAT_1*%
X210375000Y-91499000D03*
X211350000Y-92799000D03*
%TO.N,/CC1*%
X231000000Y-81250000D03*
%TO.N,/CC2*%
X231000000Y-78125000D03*
%TO.N,/DSTAT1*%
X221500000Y-76950000D03*
%TO.N,/DSTAT2*%
X223050000Y-75300000D03*
%TO.N,/SD_CLK*%
X225536598Y-83814003D03*
X221286598Y-79564003D03*
%TO.N,/DPWR3*%
X228500000Y-99800000D03*
%TO.N,/DPWR5*%
X225625000Y-74300000D03*
%TD*%
D44*
%TO.N,GND*%
X226915000Y-85665000D02*
X226915000Y-86700000D01*
D45*
X219375000Y-101750000D02*
X219750000Y-101375000D01*
D44*
X226631405Y-85381405D02*
X226915000Y-85665000D01*
D45*
X214176000Y-102975999D02*
X214176000Y-102476000D01*
X218875000Y-89375000D02*
X219000000Y-89375000D01*
X218850000Y-98375000D02*
X218850000Y-98525000D01*
D44*
X210750000Y-79375000D02*
X210750000Y-81000000D01*
D46*
X209099950Y-101630300D02*
X209099950Y-100900050D01*
D44*
X228895000Y-75360000D02*
X230685000Y-75360000D01*
X210750000Y-81000000D02*
X210750000Y-82625000D01*
D45*
X218625000Y-101500000D02*
X218125000Y-101000000D01*
D44*
X230700000Y-84000000D02*
X231000000Y-83700000D01*
X231315000Y-75360000D02*
X231000000Y-75675000D01*
X229275000Y-86250000D02*
X227365000Y-86250000D01*
X227365000Y-86250000D02*
X226915000Y-86700000D01*
D46*
X205199000Y-89202473D02*
X205199000Y-89051000D01*
D44*
X208125000Y-74025000D02*
X208125000Y-75000000D01*
X210750000Y-82625000D02*
X210750000Y-82650000D01*
X231875000Y-86250000D02*
X233900000Y-86250000D01*
D45*
X226615000Y-89885000D02*
X226000000Y-90500000D01*
D46*
X205400000Y-88850000D02*
X205400000Y-88000000D01*
D45*
X222000000Y-102387500D02*
X222000000Y-101725001D01*
X207019999Y-95675000D02*
X210000000Y-95675000D01*
D44*
X212400000Y-79350000D02*
X212400000Y-82625000D01*
D45*
X218850000Y-98525000D02*
X217875003Y-99499997D01*
X233637500Y-108750000D02*
X230500000Y-108750000D01*
D44*
X214100000Y-74000000D02*
X214100000Y-74850000D01*
D45*
X219375000Y-102850000D02*
X219375000Y-101750000D01*
D44*
X212375000Y-81000000D02*
X214000000Y-81000000D01*
X226915000Y-97300000D02*
X226076000Y-97300000D01*
X231875000Y-86250000D02*
X229275000Y-86250000D01*
D45*
X217875003Y-99499997D02*
X217775000Y-99499997D01*
D44*
X216650000Y-74000000D02*
X216650000Y-74850000D01*
X233725000Y-97750000D02*
X234175000Y-97300000D01*
D45*
X207665000Y-103250000D02*
X207735000Y-103180000D01*
D44*
X231300000Y-84000000D02*
X231000000Y-83700000D01*
D45*
X221524999Y-101250000D02*
X220625000Y-101250000D01*
D44*
X214100000Y-74850000D02*
X214125000Y-74875000D01*
X214050000Y-79350000D02*
X212375000Y-79350000D01*
X219400000Y-74000000D02*
X205400000Y-74000000D01*
X219400000Y-74000000D02*
X220750000Y-74000000D01*
D45*
X233637500Y-100250000D02*
X230500000Y-100250000D01*
D44*
X214000000Y-81000000D02*
X214050000Y-81000000D01*
X230685000Y-75360000D02*
X231000000Y-75675000D01*
D45*
X205235000Y-77600000D02*
X205400000Y-77600000D01*
D44*
X216650000Y-74850000D02*
X216625000Y-74875000D01*
D45*
X222000000Y-101725001D02*
X221524999Y-101250000D01*
X210000000Y-95675000D02*
X210000000Y-93500000D01*
D46*
X208699900Y-101630300D02*
X208699900Y-100500000D01*
D44*
X228895000Y-84000000D02*
X230700000Y-84000000D01*
X227365000Y-97750000D02*
X226915000Y-97300000D01*
D45*
X226615000Y-94110000D02*
X227140000Y-94110000D01*
D46*
X209099950Y-100900050D02*
X209500000Y-100500000D01*
D44*
X233900000Y-86250000D02*
X234175000Y-86525000D01*
X210750000Y-82650000D02*
X214050000Y-82650000D01*
D45*
X214176000Y-102476000D02*
X213280000Y-101580000D01*
X213280000Y-101580000D02*
X215214240Y-101580000D01*
X214700001Y-103500000D02*
X214176000Y-102975999D01*
D44*
X219400000Y-75900000D02*
X219400000Y-74000000D01*
D46*
X208031300Y-101630300D02*
X208026000Y-101625000D01*
D45*
X219000000Y-89375000D02*
X219400000Y-88975000D01*
D44*
X233250000Y-90750000D02*
X232625000Y-90750000D01*
X212375000Y-79350000D02*
X210750000Y-79350000D01*
D45*
X225150000Y-101125000D02*
X224949000Y-101125000D01*
D44*
X210750000Y-74804837D02*
X210750000Y-74000000D01*
D45*
X205400000Y-76750000D02*
X205400000Y-77600000D01*
D44*
X210750000Y-81000000D02*
X212375000Y-81000000D01*
X233075000Y-84000000D02*
X231300000Y-84000000D01*
D45*
X218125000Y-101000000D02*
X217825000Y-101000000D01*
X215214240Y-101580000D02*
X215222120Y-101572120D01*
X209500000Y-100500000D02*
X210875000Y-100500000D01*
X204470000Y-76835000D02*
X205235000Y-77600000D01*
D44*
X231875000Y-97750000D02*
X233725000Y-97750000D01*
D45*
X213275000Y-99500000D02*
X214125000Y-99500000D01*
D44*
X212400000Y-82625000D02*
X212400000Y-82649999D01*
D45*
X205875000Y-100500000D02*
X206625000Y-100500000D01*
D44*
X226631405Y-85104934D02*
X226631405Y-85381405D01*
X226076000Y-97300000D02*
X225875000Y-97501000D01*
D45*
X215362500Y-103500000D02*
X214700001Y-103500000D01*
X207000000Y-103250000D02*
X207665000Y-103250000D01*
D44*
X231875000Y-97750000D02*
X229275000Y-97750000D01*
D45*
X209500000Y-100500000D02*
X208026000Y-100500000D01*
D46*
X205199000Y-89051000D02*
X205400000Y-88850000D01*
D45*
X227140000Y-94110000D02*
X227250000Y-94000000D01*
D44*
X208150000Y-74000000D02*
X208125000Y-74025000D01*
X229275000Y-97750000D02*
X227365000Y-97750000D01*
X209000000Y-74000000D02*
X208150000Y-74000000D01*
X233635000Y-90680000D02*
X233320000Y-90680000D01*
D46*
X208699900Y-101630300D02*
X208031300Y-101630300D01*
D44*
X205400000Y-74000000D02*
X204000000Y-74000000D01*
D45*
X226275000Y-100000000D02*
X225150000Y-101125000D01*
D44*
X233075000Y-75360000D02*
X231315000Y-75360000D01*
X210750000Y-79350000D02*
X210750000Y-79375000D01*
X214050000Y-82650000D02*
X214050000Y-79350000D01*
D46*
X208699900Y-100500000D02*
X209500000Y-100500000D01*
D44*
X233320000Y-90680000D02*
X233250000Y-90750000D01*
X210750000Y-74000000D02*
X211550000Y-74000000D01*
D46*
X208699900Y-101630300D02*
X209099950Y-101630300D01*
D45*
X219400000Y-88975000D02*
X219400000Y-88000000D01*
X226615000Y-89860000D02*
X226615000Y-89885000D01*
D44*
%TO.N,/BZ_IO*%
X211650000Y-95272120D02*
X213422120Y-93500000D01*
X207501000Y-90999000D02*
X207250000Y-91250000D01*
X208150000Y-88000000D02*
X207939380Y-88210620D01*
X206176472Y-94279288D02*
X207125000Y-93330760D01*
X207939380Y-88843479D02*
X207501000Y-89281859D01*
X207125000Y-93330760D02*
X207125000Y-93125000D01*
X206176472Y-94350000D02*
X206176472Y-94279288D01*
X213422120Y-93500000D02*
X215000000Y-93500000D01*
X207501000Y-89281859D02*
X207501000Y-90999000D01*
X207250000Y-91250000D02*
X207250000Y-91625000D01*
X207939380Y-88210620D02*
X207939380Y-88843479D01*
D45*
%TO.N,VBUS*%
X225519755Y-79625000D02*
X225519755Y-80980245D01*
X225519755Y-80980245D02*
X225832255Y-81292745D01*
X215000000Y-96212499D02*
X215000000Y-96225000D01*
X220875000Y-87500000D02*
X220875000Y-90375000D01*
X215037501Y-96212499D02*
X215000000Y-96212499D01*
X215000000Y-96225000D02*
X211725000Y-99500000D01*
X225832255Y-77957255D02*
X225519755Y-78269755D01*
X225519755Y-78269755D02*
X225519755Y-79625000D01*
X225832255Y-76157255D02*
X225625000Y-75950000D01*
X224000000Y-80375000D02*
X224000000Y-84375000D01*
X225832255Y-77957255D02*
X225832255Y-76157255D01*
X224000000Y-84375000D02*
X220875000Y-87500000D01*
X225519755Y-79625000D02*
X224750000Y-79625000D01*
X220875000Y-90375000D02*
X215037501Y-96212499D01*
X224750000Y-79625000D02*
X224000000Y-80375000D01*
D46*
%TO.N,VBAT*%
X209900050Y-101630300D02*
X209900050Y-102369950D01*
D45*
X207450000Y-105999999D02*
X207124999Y-105999999D01*
X207124999Y-105999999D02*
X205875000Y-104750000D01*
D46*
X209900050Y-102369950D02*
X209900000Y-102370000D01*
D45*
X205875000Y-104750000D02*
X205875000Y-102500000D01*
D44*
%TO.N,/PWR_EN*%
X216250000Y-99474997D02*
X216225000Y-99499997D01*
X216250000Y-97825002D02*
X216250000Y-99474997D01*
X216250000Y-96125000D02*
X222000000Y-90375000D01*
X216175000Y-101000000D02*
X216175000Y-101737501D01*
X222000000Y-90375000D02*
X222000000Y-88500000D01*
X216225000Y-99499997D02*
X216225000Y-100950000D01*
X216175000Y-101737501D02*
X215362500Y-102550001D01*
X216250000Y-97825002D02*
X216250000Y-96125000D01*
X216212499Y-97787501D02*
X216250000Y-97825002D01*
X216225000Y-100950000D02*
X216175000Y-101000000D01*
X215000000Y-97787501D02*
X216212499Y-97787501D01*
D46*
%TO.N,/BAT_STAT_2*%
X228000000Y-74125000D02*
X227524000Y-73649000D01*
X218610932Y-110735932D02*
X218610932Y-110860932D01*
X222351000Y-73649000D02*
X222000000Y-74000000D01*
X229899000Y-100001057D02*
X231025057Y-98875000D01*
X235200000Y-98227000D02*
X235200000Y-92125000D01*
X224873943Y-111399000D02*
X228750000Y-107522943D01*
X229899000Y-103159464D02*
X229899000Y-100001057D01*
X234552000Y-98875000D02*
X235200000Y-98227000D01*
X204875000Y-107250000D02*
X208224000Y-110599000D01*
X207246768Y-101625000D02*
X205631648Y-101625000D01*
X219149000Y-111399000D02*
X224873943Y-111399000D01*
X217151000Y-110599000D02*
X217516851Y-110233149D01*
X231025057Y-98875000D02*
X234552000Y-98875000D01*
X218108149Y-110233149D02*
X218610932Y-110735932D01*
X218610932Y-110860932D02*
X219149000Y-111399000D01*
X228750000Y-107522943D02*
X228750000Y-104308464D01*
X228750000Y-104308464D02*
X229899000Y-103159464D01*
X205631648Y-101625000D02*
X204875000Y-102381648D01*
X207871768Y-102250000D02*
X207246768Y-101625000D01*
X217516851Y-110233149D02*
X218108149Y-110233149D01*
X204875000Y-102381648D02*
X204875000Y-107250000D01*
X227524000Y-73649000D02*
X222351000Y-73649000D01*
X209500000Y-101630300D02*
X209500000Y-102125000D01*
X209375000Y-102250000D02*
X207871768Y-102250000D01*
X208224000Y-110599000D02*
X217151000Y-110599000D01*
X209500000Y-102125000D02*
X209375000Y-102250000D01*
D44*
%TO.N,/EN*%
X203625000Y-75000000D02*
X204625000Y-75000000D01*
X198800000Y-86405959D02*
X198800000Y-86960000D01*
X204625000Y-75000000D02*
X204674999Y-75049999D01*
X204674999Y-75049999D02*
X205400000Y-75049999D01*
X202750000Y-74000000D02*
X202750000Y-74125000D01*
X202750000Y-74125000D02*
X203625000Y-75000000D01*
X198800000Y-86960000D02*
X200000000Y-88160000D01*
%TO.N,/IO16*%
X199502529Y-89499000D02*
X198799000Y-90202529D01*
X213250000Y-84000000D02*
X214950000Y-85700000D01*
X214950000Y-85700000D02*
X214950000Y-88000000D01*
X203850000Y-86146471D02*
X203037471Y-86959000D01*
X203037471Y-86959000D02*
X202042529Y-86959000D01*
X198799000Y-97119000D02*
X200000000Y-98320000D01*
X201201000Y-88795471D02*
X200497471Y-89499000D01*
X200497471Y-89499000D02*
X199502529Y-89499000D01*
X209573000Y-83375000D02*
X210198000Y-84000000D01*
X198799000Y-90202529D02*
X198799000Y-97119000D01*
X209000000Y-83375000D02*
X209573000Y-83375000D01*
X203850000Y-85105203D02*
X203564330Y-84819533D01*
X201201000Y-87800529D02*
X201201000Y-88795471D01*
X210198000Y-84000000D02*
X213250000Y-84000000D01*
X203850000Y-86146471D02*
X203850000Y-85105203D01*
X202042529Y-86959000D02*
X201201000Y-87800529D01*
%TO.N,/TX*%
X201329999Y-81750000D02*
X203250000Y-81750000D01*
X204850000Y-80150000D02*
X205400000Y-80150000D01*
X200000000Y-83079999D02*
X201329999Y-81750000D01*
X203250000Y-81750000D02*
X204850000Y-80150000D01*
%TO.N,/RX1*%
X203098524Y-89499000D02*
X202042529Y-89499000D01*
X202042529Y-89499000D02*
X201201000Y-90340529D01*
X201201000Y-90340529D02*
X201201000Y-94579001D01*
X208875000Y-85073000D02*
X209052000Y-85250000D01*
X203723027Y-88874497D02*
X203098524Y-89499000D01*
X213250000Y-85875000D02*
X213250000Y-88000000D01*
X209052000Y-85250000D02*
X212625000Y-85250000D01*
X212625000Y-85250000D02*
X213250000Y-85875000D01*
X201201000Y-94579001D02*
X200000000Y-95780001D01*
D45*
%TO.N,+3v3*%
X204125000Y-76125000D02*
X203500000Y-76125000D01*
X225125000Y-84500000D02*
X225125000Y-86550000D01*
X223425000Y-92750000D02*
X223425000Y-88250000D01*
X206437500Y-76937500D02*
X207251000Y-76124000D01*
D44*
X224250000Y-92001119D02*
X223426119Y-92001119D01*
X233375000Y-92625000D02*
X232750000Y-92625000D01*
D45*
X222450000Y-98975000D02*
X222949999Y-99474999D01*
D44*
X223425000Y-92000000D02*
X223425000Y-91250000D01*
X223867846Y-101776000D02*
X222949999Y-100858153D01*
D45*
X220500000Y-77786041D02*
X222750000Y-80036041D01*
X222949999Y-99474999D02*
X222949999Y-100112500D01*
D44*
X222949999Y-100858153D02*
X222949999Y-100112500D01*
D45*
X221862500Y-98387500D02*
X220750000Y-97275000D01*
X220500000Y-77000000D02*
X220500000Y-77786041D01*
X222750000Y-80036041D02*
X222750000Y-82125000D01*
X220750000Y-94500000D02*
X222500000Y-92750000D01*
X222500000Y-92750000D02*
X223425000Y-92750000D01*
X219400000Y-76750000D02*
X220250000Y-76750000D01*
X221862500Y-98975000D02*
X222450000Y-98975000D01*
X222949999Y-100112500D02*
X224612500Y-100112500D01*
X221862500Y-98975000D02*
X221862500Y-98387500D01*
X207251000Y-76124000D02*
X218374000Y-76124000D01*
D44*
X233635000Y-93080000D02*
X233635000Y-92885000D01*
D45*
X203500000Y-76125000D02*
X202375000Y-75000000D01*
D44*
X228500000Y-101450000D02*
X228174000Y-101776000D01*
D45*
X218374000Y-76124000D02*
X219000000Y-76750000D01*
X224612500Y-100112500D02*
X224725000Y-100000000D01*
X220250000Y-76750000D02*
X220500000Y-77000000D01*
X220750000Y-97275000D02*
X220750000Y-94500000D01*
X225125000Y-86550000D02*
X223425000Y-88250000D01*
D44*
X228174000Y-101776000D02*
X223867846Y-101776000D01*
X233635000Y-92885000D02*
X233375000Y-92625000D01*
D45*
X219000000Y-76750000D02*
X219400000Y-76750000D01*
D44*
X223426119Y-92001119D02*
X223425000Y-92000000D01*
D45*
X223425000Y-92750000D02*
X223425000Y-95750000D01*
D44*
%TO.N,/IO0*%
X206479331Y-78372177D02*
X206479331Y-78370669D01*
X206479331Y-78370669D02*
X208125000Y-76725000D01*
X208125000Y-76725000D02*
X217825000Y-76725000D01*
X218700000Y-77600000D02*
X219400000Y-77600000D01*
X217825000Y-76725000D02*
X218700000Y-77600000D01*
%TO.N,/TX1*%
X208875000Y-84272997D02*
X209647997Y-84272997D01*
X209647997Y-84272997D02*
X210000000Y-84625000D01*
X214100000Y-85850000D02*
X214100000Y-88000000D01*
X210000000Y-84625000D02*
X212875000Y-84625000D01*
X214100000Y-85850000D02*
X212875000Y-84625000D01*
%TO.N,/RX*%
X199450000Y-79300000D02*
X198651000Y-80099000D01*
X198651000Y-84271000D02*
X200000000Y-85620000D01*
X205400000Y-79300000D02*
X199450000Y-79300000D01*
X198651000Y-80099000D02*
X198651000Y-84271000D01*
%TO.N,/SPI2_MISO*%
X211909810Y-91499000D02*
X215551000Y-91499000D01*
X218350000Y-88700000D02*
X218350000Y-88000000D01*
X217768612Y-110834149D02*
X217402761Y-111200000D01*
X211895564Y-91484754D02*
X211909810Y-91499000D01*
X215551000Y-91499000D02*
X218350000Y-88700000D01*
X217402761Y-111200000D02*
X209875000Y-111200000D01*
%TO.N,/SCL*%
X209500000Y-78000000D02*
X214375000Y-78000000D01*
X202540000Y-84810000D02*
X202540000Y-85620000D01*
X206937500Y-80562500D02*
X209500000Y-78000000D01*
X203246687Y-84103313D02*
X202540000Y-84810000D01*
X216375000Y-83000000D02*
X218625001Y-85250001D01*
X214375000Y-78000000D02*
X216375000Y-80000000D01*
X218625001Y-85250001D02*
X219400000Y-85250001D01*
X203341771Y-84103313D02*
X203246687Y-84103313D01*
X216375000Y-80000000D02*
X216375000Y-83000000D01*
%TO.N,/IO47*%
X208875000Y-90998000D02*
X208875000Y-90250000D01*
X208875000Y-90250000D02*
X209375000Y-89750000D01*
X208102880Y-92352880D02*
X206097120Y-92352880D01*
X209375000Y-89750000D02*
X209375000Y-88701000D01*
X206097120Y-92352880D02*
X205751000Y-92699000D01*
X205621000Y-92699000D02*
X202540000Y-95780000D01*
X209349000Y-88349000D02*
X209000000Y-88000000D01*
X209349000Y-88701000D02*
X209349000Y-88349000D01*
X205751000Y-92699000D02*
X205621000Y-92699000D01*
X209375000Y-88701000D02*
X209349000Y-88701000D01*
%TO.N,/SPI2_SCK*%
X226099000Y-105000000D02*
X226099000Y-108026000D01*
X202977120Y-92802880D02*
X202540000Y-93240000D01*
X223375000Y-110750000D02*
X220000000Y-110750000D01*
X216475000Y-86685460D02*
X216810460Y-86685460D01*
X216450870Y-86709590D02*
X216475000Y-86685460D01*
X203966611Y-92190323D02*
X203354054Y-92802880D01*
X217500000Y-87375000D02*
X217500000Y-88000000D01*
X203354054Y-92802880D02*
X202977120Y-92802880D01*
X226276000Y-104823000D02*
X226099000Y-105000000D01*
X226250000Y-103000000D02*
X226276000Y-103026000D01*
X226099000Y-108026000D02*
X223375000Y-110750000D01*
X226276000Y-103026000D02*
X226276000Y-104823000D01*
X216810460Y-86685460D02*
X217500000Y-87375000D01*
%TO.N,/IO48*%
X206235325Y-93188675D02*
X205768528Y-93655472D01*
X206131289Y-89967240D02*
X206131289Y-89732760D01*
X204500000Y-96360000D02*
X202540000Y-98320000D01*
X206450000Y-89414049D02*
X206450000Y-88000000D01*
X206131289Y-89732760D02*
X206450000Y-89414049D01*
X205768528Y-93706472D02*
X204500000Y-94975000D01*
X204500000Y-94975000D02*
X204500000Y-96360000D01*
X205768528Y-93655472D02*
X205768528Y-93706472D01*
X206235325Y-93063205D02*
X206235325Y-93188675D01*
%TO.N,/SDA*%
X218875000Y-84375000D02*
X219375000Y-84375000D01*
X214625000Y-77375000D02*
X217125000Y-79875000D01*
X217125000Y-79875000D02*
X217125000Y-82625000D01*
X206559706Y-79230360D02*
X206644640Y-79230360D01*
X217125000Y-82625000D02*
X218875000Y-84375000D01*
X208500000Y-77375000D02*
X214625000Y-77375000D01*
X219375000Y-84375000D02*
X219400000Y-84400000D01*
X206644640Y-79230360D02*
X208500000Y-77375000D01*
%TO.N,/SPI2_MOSI*%
X225598000Y-107777000D02*
X225598000Y-104027000D01*
X204750293Y-92255171D02*
X204567611Y-92072489D01*
X219211932Y-110612331D02*
X219432035Y-110392228D01*
X204567611Y-91941380D02*
X204215554Y-91589323D01*
X219730346Y-110099000D02*
X223276000Y-110099000D01*
X217825000Y-86950000D02*
X219400000Y-86950000D01*
X204215554Y-91589323D02*
X203717668Y-91589323D01*
X215800870Y-86125000D02*
X215891410Y-86034460D01*
X203717668Y-91589323D02*
X203716668Y-91590323D01*
X215891410Y-86034460D02*
X216909460Y-86034460D01*
X219437118Y-110392228D02*
X219730346Y-110099000D01*
X203716668Y-91590323D02*
X203430323Y-91590323D01*
X223276000Y-110099000D02*
X225598000Y-107777000D01*
X204567611Y-92072489D02*
X204567611Y-91941380D01*
X219432035Y-110392228D02*
X219437118Y-110392228D01*
X225598000Y-104027000D02*
X225625000Y-104000000D01*
X216909460Y-86034460D02*
X217825000Y-86950000D01*
X203430323Y-91590323D02*
X202540000Y-90700000D01*
%TO.N,/SD_DATA2*%
X217875000Y-81875000D02*
X219375001Y-81875000D01*
X227500000Y-96000000D02*
X227250000Y-95750000D01*
X233250000Y-95500000D02*
X232625000Y-95500000D01*
X227250000Y-95750000D02*
X225075000Y-95750000D01*
X219375001Y-81875000D02*
X219400000Y-81850001D01*
X233570000Y-95180000D02*
X233250000Y-95500000D01*
%TO.N,/SD_DATA3*%
X233635000Y-94480000D02*
X233270000Y-94480000D01*
X227464000Y-95161000D02*
X227625000Y-95000000D01*
X233270000Y-94480000D02*
X233250000Y-94500000D01*
X225986000Y-95161000D02*
X227464000Y-95161000D01*
X218525000Y-82750000D02*
X219350000Y-82750000D01*
X225075000Y-94250000D02*
X225986000Y-95161000D01*
X219350000Y-82750000D02*
X219400000Y-82700000D01*
X233250000Y-94500000D02*
X232625000Y-94500000D01*
%TO.N,/SD_CMD*%
X218000000Y-79625000D02*
X218325000Y-79300000D01*
X233635000Y-93780000D02*
X232780000Y-93780000D01*
X225200000Y-92625000D02*
X225075000Y-92750000D01*
X227750000Y-92625000D02*
X225200000Y-92625000D01*
X232780000Y-93780000D02*
X232625000Y-93625000D01*
X218325000Y-79300000D02*
X219400000Y-79300000D01*
%TO.N,/SD_DATA0*%
X219500000Y-80250000D02*
X219400000Y-80150000D01*
X227434000Y-88809000D02*
X227625000Y-89000000D01*
X225075000Y-89750000D02*
X226016000Y-88809000D01*
X232625000Y-89000000D02*
X232905000Y-89280000D01*
X232905000Y-89280000D02*
X233635000Y-89280000D01*
X226016000Y-88809000D02*
X227434000Y-88809000D01*
X220875000Y-80250000D02*
X219500000Y-80250000D01*
%TO.N,/SD_DATA1*%
X232750000Y-87750000D02*
X233250000Y-87750000D01*
X221000000Y-81375000D02*
X220625000Y-81000000D01*
X233250000Y-87750000D02*
X233635000Y-88135000D01*
X220625000Y-81000000D02*
X219400000Y-81000000D01*
X225200000Y-88125000D02*
X225075000Y-88250000D01*
X233635000Y-88135000D02*
X233635000Y-88580000D01*
X227750000Y-88125000D02*
X225200000Y-88125000D01*
X232625000Y-87625000D02*
X232750000Y-87750000D01*
%TO.N,/SD_CD*%
X227250000Y-91250000D02*
X225075000Y-91250000D01*
X233309582Y-89980000D02*
X233241100Y-89911518D01*
X227500000Y-90625000D02*
X227500000Y-91000000D01*
X233635000Y-89980000D02*
X233309582Y-89980000D01*
X233241100Y-89911518D02*
X232616100Y-89911518D01*
X220550000Y-83550000D02*
X219400000Y-83550000D01*
X227500000Y-91000000D02*
X227250000Y-91250000D01*
X220750000Y-83750000D02*
X220550000Y-83550000D01*
%TO.N,/LED_BAT*%
X210700000Y-86075000D02*
X210625000Y-86000000D01*
X220375000Y-76050000D02*
X220750000Y-76050000D01*
X221337500Y-75462500D02*
X222825000Y-76950000D01*
X210700000Y-88000000D02*
X210700000Y-86075000D01*
X220750000Y-76050000D02*
X221337500Y-75462500D01*
%TO.N,/LED_GPIO*%
X204599000Y-82724000D02*
X204599000Y-90099000D01*
X207000000Y-88875000D02*
X207250000Y-88625000D01*
X207250000Y-88625000D02*
X207250000Y-88050000D01*
X206375000Y-91000000D02*
X207000000Y-90375000D01*
X205500000Y-91000000D02*
X206375000Y-91000000D01*
X207000000Y-90375000D02*
X207000000Y-88875000D01*
X204151438Y-82276438D02*
X204599000Y-82724000D01*
X204599000Y-90099000D02*
X205500000Y-91000000D01*
X207250000Y-88050000D02*
X207300000Y-88000000D01*
%TO.N,/BAT_MEAS*%
X220151000Y-86150999D02*
X220151000Y-89073942D01*
X219400000Y-86099999D02*
X220100000Y-86099999D01*
X209226000Y-92149000D02*
X206250000Y-95125000D01*
X220100000Y-86099999D02*
X220151000Y-86150999D01*
X206250000Y-96094065D02*
X206250000Y-96375000D01*
X204225000Y-98400000D02*
X204225000Y-102500000D01*
X206243999Y-96088064D02*
X206250000Y-96094065D01*
X206250000Y-96375000D02*
X204225000Y-98400000D01*
X220151000Y-89073942D02*
X217075942Y-92149000D01*
X206250000Y-95125000D02*
X206250000Y-95255935D01*
X206250000Y-95255935D02*
X206243999Y-95261936D01*
X217075942Y-92149000D02*
X209226000Y-92149000D01*
X206243999Y-95261936D02*
X206243999Y-96088064D01*
%TO.N,/RAD_IO9*%
X207300003Y-86875000D02*
X207300003Y-86594243D01*
X207300003Y-86594243D02*
X206805759Y-86099999D01*
X206805759Y-86099999D02*
X205400000Y-86099999D01*
%TO.N,/RAD_IO8*%
X206425000Y-86950000D02*
X206500000Y-86875000D01*
X205400000Y-86950000D02*
X206425000Y-86950000D01*
D46*
%TO.N,/D-*%
X212125000Y-86249999D02*
X212125000Y-87725000D01*
X212125000Y-87725000D02*
X212400000Y-88000000D01*
X212374999Y-86000000D02*
X212125000Y-86249999D01*
D44*
%TO.N,/RAD_NRST*%
X208900009Y-86175009D02*
X207125000Y-84400000D01*
X208900009Y-86875000D02*
X208900009Y-86175009D01*
X207125000Y-84400000D02*
X205400000Y-84400000D01*
%TO.N,/RAD_BUSY*%
X208100006Y-86875000D02*
X208125000Y-86850006D01*
X206875001Y-85250001D02*
X205400000Y-85250001D01*
X208775000Y-89149000D02*
X208689235Y-89063235D01*
X208689235Y-89234765D02*
X208125000Y-89799000D01*
X209305346Y-91648000D02*
X210350000Y-90603346D01*
X208689235Y-89063235D02*
X208689235Y-89234765D01*
X208125000Y-86850006D02*
X208125000Y-86500000D01*
X208125000Y-89799000D02*
X208125000Y-91375000D01*
X208125000Y-86500000D02*
X206875001Y-85250001D01*
X210350000Y-90603346D02*
X210350000Y-90198000D01*
X208125000Y-91375000D02*
X208398000Y-91648000D01*
X208398000Y-91648000D02*
X209305346Y-91648000D01*
%TO.N,/SPI2_CS1*%
X216650000Y-88700000D02*
X216650000Y-88000000D01*
X211750000Y-90698106D02*
X214651894Y-90698106D01*
X214651894Y-90698106D02*
X216650000Y-88700000D01*
D46*
%TO.N,/D+*%
X211724000Y-87826000D02*
X211550000Y-88000000D01*
X211724000Y-86149004D02*
X211724000Y-87826000D01*
X211574996Y-86000000D02*
X211724000Y-86149004D01*
D44*
%TO.N,/BAT_STAT_1*%
X215800000Y-88700000D02*
X215800000Y-88000000D01*
X211000000Y-97875000D02*
X211000000Y-95000000D01*
X211000000Y-95000000D02*
X211351000Y-94649000D01*
X211351000Y-94649000D02*
X211351000Y-92940397D01*
X211750000Y-89750000D02*
X214750000Y-89750000D01*
X210375000Y-91499000D02*
X211000000Y-90874000D01*
X211279802Y-92869198D02*
X211350000Y-92799000D01*
D46*
X209900050Y-98974950D02*
X209900050Y-99369700D01*
D44*
X211000000Y-90500000D02*
X211750000Y-89750000D01*
X210375000Y-98500000D02*
X211000000Y-97875000D01*
X214750000Y-89750000D02*
X215800000Y-88700000D01*
X211351000Y-92940397D02*
X211279802Y-92869198D01*
D46*
X210375000Y-98500000D02*
X209900050Y-98974950D01*
D44*
X211000000Y-90874000D02*
X211000000Y-90500000D01*
D45*
%TO.N,+4v5-2*%
X221050001Y-104424999D02*
X221000000Y-104475000D01*
X222949999Y-102954101D02*
X222949999Y-102387500D01*
X222500000Y-103875000D02*
X222500000Y-103404100D01*
X221900000Y-104475000D02*
X222500000Y-103875000D01*
X222500000Y-103404100D02*
X222949999Y-102954101D01*
X219474999Y-104449999D02*
X219500000Y-104475000D01*
X221050001Y-102387500D02*
X221050001Y-104424999D01*
X221000000Y-104475000D02*
X219500000Y-104475000D01*
X217637500Y-104449999D02*
X217637500Y-103500000D01*
X217637500Y-104449999D02*
X219474999Y-104449999D01*
X219500000Y-104475000D02*
X221900000Y-104475000D01*
D44*
%TO.N,/CC1*%
X231000000Y-81250000D02*
X231000000Y-81750000D01*
X230875000Y-81925000D02*
X231000000Y-82050000D01*
X230875000Y-81875000D02*
X230875000Y-81925000D01*
X231000000Y-81750000D02*
X230875000Y-81875000D01*
%TO.N,/CC2*%
X231000000Y-78125000D02*
X231000000Y-77325000D01*
D46*
%TO.N,/ILIM*%
X209099950Y-97924950D02*
X208500000Y-97325000D01*
X209099950Y-99369700D02*
X209099950Y-97924950D01*
%TO.N,/ISET*%
X209500000Y-99369700D02*
X209500000Y-97825000D01*
X209500000Y-97825000D02*
X210000000Y-97325000D01*
%TO.N,/TSMR*%
X208699900Y-99369700D02*
X208699900Y-99004901D01*
X208699900Y-99004901D02*
X207019999Y-97325000D01*
D44*
%TO.N,/SW*%
X222000000Y-96250000D02*
X222000000Y-95500000D01*
X225901000Y-102349000D02*
X226724000Y-102349000D01*
X224974000Y-105405000D02*
X224974000Y-103276000D01*
X229375000Y-103045654D02*
X229375000Y-99125000D01*
X224500000Y-98750000D02*
X222000000Y-96250000D01*
X224974000Y-103276000D02*
X225901000Y-102349000D01*
X229000000Y-98750000D02*
X224500000Y-98750000D01*
X227651000Y-103276000D02*
X229144654Y-103276000D01*
X229144654Y-103276000D02*
X229375000Y-103045654D01*
X213250000Y-104787501D02*
X216087499Y-107625000D01*
X229375000Y-99125000D02*
X229000000Y-98750000D01*
X226724000Y-102349000D02*
X227651000Y-103276000D01*
X216087499Y-107625000D02*
X222754000Y-107625000D01*
X222754000Y-107625000D02*
X224974000Y-105405000D01*
%TO.N,/SD_CLK*%
X235349000Y-90316000D02*
X234285000Y-91380000D01*
X227625000Y-85250000D02*
X234750000Y-85250000D01*
X226189003Y-83814003D02*
X227625000Y-85250000D01*
X235349000Y-85849000D02*
X235349000Y-90316000D01*
X220172595Y-78450000D02*
X219399999Y-78450000D01*
X221286598Y-79564003D02*
X220172595Y-78450000D01*
X233635000Y-91380000D02*
X233540637Y-91380000D01*
X234285000Y-91380000D02*
X233635000Y-91380000D01*
X225536598Y-83814003D02*
X226189003Y-83814003D01*
X234750000Y-85250000D02*
X235349000Y-85849000D01*
%TD*%
%TA.AperFunction,Conductor*%
%TO.N,+4v5-1*%
G36*
X212084965Y-101149928D02*
G01*
X212093048Y-101153412D01*
X212093361Y-101153747D01*
X212676561Y-101803907D01*
X212679500Y-101811585D01*
X212679500Y-101865635D01*
X212690134Y-101938625D01*
X212690135Y-101938628D01*
X212745173Y-102051210D01*
X212745174Y-102051211D01*
X212833789Y-102139826D01*
X212946375Y-102194866D01*
X213019364Y-102205500D01*
X213031660Y-102205500D01*
X213039792Y-102208868D01*
X213040221Y-102209321D01*
X213561096Y-102790000D01*
X213773777Y-103027099D01*
X213776324Y-103031802D01*
X213802793Y-103130587D01*
X213855520Y-103221912D01*
X214379520Y-103745912D01*
X214379521Y-103745913D01*
X214454088Y-103820480D01*
X214517549Y-103857119D01*
X214520352Y-103859392D01*
X214786822Y-104156457D01*
X214789745Y-104164751D01*
X214761027Y-104700816D01*
X214757228Y-104708756D01*
X214748928Y-104711685D01*
X214743576Y-104710032D01*
X212141181Y-103130591D01*
X211580000Y-102790000D01*
X211579980Y-102789987D01*
X210205573Y-101963351D01*
X210200340Y-101956273D01*
X210200000Y-101953496D01*
X210200000Y-101310056D01*
X210203368Y-101301924D01*
X210209965Y-101298660D01*
X211389153Y-101140113D01*
X211390845Y-101140012D01*
X212084965Y-101149928D01*
G37*
%TD.AperFunction*%
%TD*%
%TA.AperFunction,Conductor*%
%TO.N,VBAT*%
G36*
X209993526Y-102373368D02*
G01*
X209996894Y-102381500D01*
X209996573Y-102384198D01*
X209720293Y-103528785D01*
X209719455Y-103531119D01*
X208275541Y-106498611D01*
X208268954Y-106504449D01*
X208260168Y-106503920D01*
X208259201Y-106503390D01*
X206631348Y-105506946D01*
X206626172Y-105499829D01*
X206627545Y-105491135D01*
X206628510Y-105489786D01*
X208034302Y-103802837D01*
X208041474Y-103798821D01*
X208068625Y-103794866D01*
X208181211Y-103739826D01*
X208269826Y-103651211D01*
X208324866Y-103538625D01*
X208335500Y-103465636D01*
X208335500Y-103445564D01*
X208338165Y-103438202D01*
X208918207Y-102742150D01*
X208922582Y-102738914D01*
X209797862Y-102370899D01*
X209802319Y-102370000D01*
X209985394Y-102370000D01*
X209993526Y-102373368D01*
G37*
%TD.AperFunction*%
%TD*%
%TA.AperFunction,Conductor*%
%TO.N,VBUS*%
G36*
X211456567Y-99033396D02*
G01*
X211460000Y-99041501D01*
X211460000Y-99955774D01*
X211456632Y-99963906D01*
X211448500Y-99967274D01*
X211446090Y-99967019D01*
X210209090Y-99701947D01*
X210201845Y-99696949D01*
X210200000Y-99690702D01*
X210200000Y-99051410D01*
X210203368Y-99043278D01*
X210211407Y-99039910D01*
X211448409Y-99030092D01*
X211456567Y-99033396D01*
G37*
%TD.AperFunction*%
%TD*%
M02*
