M48
; DRILL file {KiCad 9.0.0} date 2025-05-09T11:29:09-0400
; FORMAT={-:-/ absolute / inch / decimal}
; #@! TF.CreationDate,2025-05-09T11:29:09-04:00
; #@! TF.GenerationSoftware,Kicad,Pcbnew,9.0.0
; #@! TF.FileFunction,Plated,1,4,PTH
FMAT,2
INCH
; #@! TA.AperFunction,Plated,PTH,ViaDrill
T1C0.0118
; #@! TA.AperFunction,Plated,PTH,ComponentDrill
T2C0.0236
; #@! TA.AperFunction,Plated,PTH,ComponentDrill
T3C0.0295
; #@! TA.AperFunction,Plated,PTH,ComponentDrill
T4C0.0394
%
G90
G05
T1
X7.8268Y-3.4018
X7.9823Y-2.9134
X8.0056Y-3.3112
X8.0143Y-3.3394
X8.0206Y-3.499
X8.0302Y-3.6295
X8.0315Y-2.9134
X8.0364Y-2.997
X8.0375Y-3.2392
X8.05Y-3.025
X8.061Y-3.6321
X8.0787Y-3.5119
X8.1154Y-3.542
X8.1172Y-3.7146
X8.1195Y-3.6639
X8.1275Y-3.029
X8.1291Y-3.0855
X8.1299Y-3.4203
X8.1323Y-3.1193
X8.1348Y-3.9567
X8.1471Y-3.1718
X8.1496Y-4.065
X8.1545Y-3.6663
X8.1594Y-3.6073
X8.1614Y-3.4203
X8.19Y-3.9567
X8.19Y-4.001
X8.1929Y-3.4203
X8.193Y-3.6359
X8.1939Y-2.9528
X8.2195Y-3.5098
X8.2234Y-3.3178
X8.2234Y-3.3493
X8.2234Y-3.5826
X8.2244Y-3.4203
X8.2283Y-3.2825
X8.2628Y-4.378
X8.2815Y-3.5511
X8.2825Y-3.6023
X8.2923Y-3.3858
X8.2972Y-2.9451
X8.2972Y-3.125
X8.2972Y-3.189
X8.2972Y-3.253
X8.2972Y-4.0502
X8.3022Y-3.9567
X8.3209Y-3.6535
X8.3297Y-3.3858
X8.3327Y-3.7509
X8.3366Y-3.5708
X8.3423Y-3.6018
X8.3612Y-3.3858
X8.3612Y-3.124
X8.3612Y-3.189
X8.3622Y-3.253
X8.4252Y-3.189
X8.4272Y-3.124
X8.4272Y-3.2539
X8.4301Y-2.9478
X8.4301Y-3.9173
X8.4498Y-4.3209
X8.4733Y-3.9989
X8.4941Y-3.0512
X8.4961Y-3.3907
X8.5217Y-3.4138
X8.5239Y-4.0897
X8.5285Y-2.9478
X8.5335Y-4.1732
X8.5335Y-4.2766
X8.5736Y-4.3635
X8.5778Y-3.2234
X8.5827Y-3.1348
X8.6025Y-4.2033
X8.6029Y-4.1457
X8.6033Y-3.2579
X8.6073Y-3.9961
X8.6161Y-3.873
X8.6171Y-3.5187
X8.6304Y-4.3548
X8.6516Y-3.9911
X8.6614Y-4.2039
X8.6614Y-4.2766
X8.6614Y-4.3602
X8.6622Y-4.1464
X8.6713Y-4.0846
X8.6762Y-2.9941
X8.686Y-3.9862
X8.6909Y-2.9134
X8.6909Y-3.2972
X8.6959Y-3.1594
X8.7008Y-3.2037
X8.7121Y-3.1324
X8.72Y-4.2042
X8.7205Y-3.0295
X8.7205Y-4.1437
X8.7347Y-3.8967
X8.7402Y-2.9134
X8.7697Y-3.2333
X8.7815Y-2.9646
X8.7943Y-4.0797
X8.7943Y-4.1732
X8.7943Y-4.2766
X8.814Y-3.971
X8.8287Y-3.6221
X8.8386Y-3.0709
X8.8563Y-3.9813
X8.8583Y-3.0413
X8.8632Y-3.3268
X8.873Y-4.3209
X8.8794Y-3.2998
X8.8829Y-2.9252
X8.8829Y-4.0945
X8.891Y-3.0692
X8.891Y-3.2005
X8.8927Y-3.8386
X8.8976Y-3.563
X8.9075Y-4.0551
X8.9213Y-3.1348
X8.9225Y-3.3506
X8.9272Y-4.1732
X8.9331Y-3.9813
X8.9419Y-3.0118
X8.9469Y-3.2628
X8.9469Y-3.7008
X8.9567Y-3.5679
X8.9567Y-3.7795
X8.9616Y-3.5039
X8.9616Y-3.7402
X8.9665Y-3.4695
X8.9665Y-3.6467
X8.9764Y-2.9183
X8.9961Y-3.9291
X9.0453Y-4.2077
X9.0748Y-3.9469
X9.0748Y-4.2815
X9.0945Y-3.0758
X9.0945Y-3.1988
X9.1581Y-3.5398
X9.1585Y-3.4498
X9.1585Y-3.5039
X9.1585Y-3.5728
X9.1585Y-3.686
X9.1585Y-3.7205
X9.1585Y-3.7598
X9.1634Y-3.6467
X9.2598Y-3.627
T3
X8.1673Y-4.1732
X8.1673Y-4.252
T4
X7.874Y-3.0709
X7.874Y-3.1709
X7.874Y-3.2709
X7.874Y-3.3709
X7.874Y-3.4709
X7.874Y-3.5709
X7.874Y-3.6709
X7.874Y-3.7709
X7.874Y-3.8709
X7.874Y-3.9709
X7.974Y-3.0709
X7.974Y-3.1709
X7.974Y-3.2709
X7.974Y-3.3709
X7.974Y-3.4709
X7.974Y-3.5709
X7.974Y-3.6709
X7.974Y-3.7709
X7.974Y-3.8709
X7.974Y-3.9709
X8.2677Y-3.6811
X8.4646Y-3.6811
T2
G00X8.7402Y-3.4705
M15
G01X8.7402Y-3.498
M16
G05
G00X8.7402Y-3.7461
M15
G01X8.7402Y-3.7736
M16
G05
G00X8.99Y-2.9669
M15
G01X9.0333Y-2.9669
M16
G05
G00X8.99Y-3.3071
M15
G01X9.0333Y-3.3071
M16
G05
G00X9.1604Y-2.9669
M15
G01X9.1919Y-2.9669
M16
G05
G00X9.1604Y-3.3071
M15
G01X9.1919Y-3.3071
M16
G05
M30
