%TF.GenerationSoftware,KiCad,Pcbnew,9.0.0*%
%TF.CreationDate,2025-05-09T11:29:12-04:00*%
%TF.ProjectId,ESP32 Ground Station,45535033-3220-4477-926f-756e64205374,rev?*%
%TF.SameCoordinates,Original*%
%TF.FileFunction,Soldermask,Top*%
%TF.FilePolarity,Negative*%
%FSLAX46Y46*%
G04 Gerber Fmt 4.6, Leading zero omitted, Abs format (unit mm)*
G04 Created by KiCad (PCBNEW 9.0.0) date 2025-05-09 11:29:12*
%MOMM*%
%LPD*%
G01*
G04 APERTURE LIST*
G04 Aperture macros list*
%AMRoundRect*
0 Rectangle with rounded corners*
0 $1 Rounding radius*
0 $2 $3 $4 $5 $6 $7 $8 $9 X,Y pos of 4 corners*
0 Add a 4 corners polygon primitive as box body*
4,1,4,$2,$3,$4,$5,$6,$7,$8,$9,$2,$3,0*
0 Add four circle primitives for the rounded corners*
1,1,$1+$1,$2,$3*
1,1,$1+$1,$4,$5*
1,1,$1+$1,$6,$7*
1,1,$1+$1,$8,$9*
0 Add four rect primitives between the rounded corners*
20,1,$1+$1,$2,$3,$4,$5,0*
20,1,$1+$1,$4,$5,$6,$7,0*
20,1,$1+$1,$6,$7,$8,$9,0*
20,1,$1+$1,$8,$9,$2,$3,0*%
G04 Aperture macros list end*
%ADD10R,0.800000X0.400000*%
%ADD11R,0.800000X0.800000*%
%ADD12R,0.400000X0.800000*%
%ADD13RoundRect,0.243750X0.456250X-0.243750X0.456250X0.243750X-0.456250X0.243750X-0.456250X-0.243750X0*%
%ADD14RoundRect,0.243750X0.243750X0.456250X-0.243750X0.456250X-0.243750X-0.456250X0.243750X-0.456250X0*%
%ADD15RoundRect,0.200000X0.200000X0.275000X-0.200000X0.275000X-0.200000X-0.275000X0.200000X-0.275000X0*%
%ADD16RoundRect,0.225000X-0.250000X0.225000X-0.250000X-0.225000X0.250000X-0.225000X0.250000X0.225000X0*%
%ADD17RoundRect,0.225000X-0.225000X-0.250000X0.225000X-0.250000X0.225000X0.250000X-0.225000X0.250000X0*%
%ADD18RoundRect,0.225000X0.250000X-0.225000X0.250000X0.225000X-0.250000X0.225000X-0.250000X-0.225000X0*%
%ADD19RoundRect,0.250000X-0.625000X0.350000X-0.625000X-0.350000X0.625000X-0.350000X0.625000X0.350000X0*%
%ADD20O,1.750000X1.200000*%
%ADD21R,2.000000X2.000000*%
%ADD22C,2.000000*%
%ADD23C,0.650000*%
%ADD24RoundRect,0.150000X0.425000X-0.150000X0.425000X0.150000X-0.425000X0.150000X-0.425000X-0.150000X0*%
%ADD25RoundRect,0.075000X0.500000X-0.075000X0.500000X0.075000X-0.500000X0.075000X-0.500000X-0.075000X0*%
%ADD26O,2.100000X1.000000*%
%ADD27O,1.800000X1.000000*%
%ADD28R,1.700000X1.700000*%
%ADD29C,1.700000*%
%ADD30O,1.200000X2.000000*%
%ADD31R,5.080000X1.500000*%
%ADD32RoundRect,0.250000X1.075000X-0.375000X1.075000X0.375000X-1.075000X0.375000X-1.075000X-0.375000X0*%
%ADD33RoundRect,0.200000X-0.275000X0.200000X-0.275000X-0.200000X0.275000X-0.200000X0.275000X0.200000X0*%
%ADD34RoundRect,0.093750X0.156250X0.093750X-0.156250X0.093750X-0.156250X-0.093750X0.156250X-0.093750X0*%
%ADD35RoundRect,0.075000X0.250000X0.075000X-0.250000X0.075000X-0.250000X-0.075000X0.250000X-0.075000X0*%
G04 APERTURE END LIST*
D10*
%TO.C,U2*%
X215650000Y-103475000D03*
X215650000Y-104325000D03*
X215650000Y-105175000D03*
X215650000Y-106025000D03*
X215650000Y-106875000D03*
X215650000Y-107725000D03*
X215650000Y-108575000D03*
D11*
X215600000Y-109725000D03*
D12*
X216600000Y-109675000D03*
X217450000Y-109675000D03*
X218300000Y-109675000D03*
X219150000Y-109675000D03*
X220000000Y-109675000D03*
X220850000Y-109675000D03*
X221700000Y-109675000D03*
X222550000Y-109675000D03*
X223400000Y-109675000D03*
D11*
X224350000Y-109725000D03*
D10*
X224350000Y-108575000D03*
X224350000Y-107725000D03*
X224350000Y-106875000D03*
X224350000Y-106025000D03*
X224350000Y-105175000D03*
X224350000Y-104325000D03*
X224350000Y-103475000D03*
D11*
X224400000Y-102325000D03*
D12*
X223400000Y-102375000D03*
X222550000Y-102375000D03*
X221700000Y-102375000D03*
X220850000Y-102375000D03*
X220000000Y-102375000D03*
X219150000Y-102375000D03*
X218300000Y-102375000D03*
X217450000Y-102375000D03*
X216600000Y-102375000D03*
D11*
X215600000Y-102325000D03*
X217750000Y-104525000D03*
X217750000Y-106025000D03*
X217750000Y-107525000D03*
X219250000Y-104525000D03*
X219250000Y-106025000D03*
X219250000Y-107525000D03*
X220750000Y-104525000D03*
X220750000Y-106025000D03*
X220750000Y-107525000D03*
X222250000Y-104525000D03*
X222250000Y-106025000D03*
X222250000Y-107525000D03*
%TD*%
D13*
%TO.C,D7*%
X225625000Y-76062501D03*
X225625000Y-74187499D03*
%TD*%
%TO.C,D1*%
X221175000Y-77062501D03*
X221175000Y-75187499D03*
%TD*%
D14*
%TO.C,D6*%
X214500002Y-77375000D03*
X212625000Y-77375000D03*
%TD*%
D15*
%TO.C,R18*%
X210887501Y-77375000D03*
X209237501Y-77375000D03*
%TD*%
D16*
%TO.C,C6*%
X229625000Y-104475000D03*
X229625000Y-106025000D03*
%TD*%
D17*
%TO.C,C8*%
X222100000Y-99875000D03*
X223650000Y-99875000D03*
%TD*%
D18*
%TO.C,C5*%
X226625000Y-108525000D03*
X226625000Y-106975000D03*
%TD*%
D19*
%TO.C,J2*%
X207450000Y-105999999D03*
D20*
X207450000Y-107999999D03*
%TD*%
D21*
%TO.C,BZ1*%
X215000000Y-93500000D03*
D22*
X210000000Y-93500000D03*
%TD*%
D23*
%TO.C,J3*%
X229395000Y-82570000D03*
X229395000Y-76790000D03*
D24*
X228320000Y-82880000D03*
X228320000Y-82080000D03*
D25*
X228320000Y-80930000D03*
X228320000Y-79930000D03*
X228320000Y-79430000D03*
X228320000Y-78430000D03*
D24*
X228320000Y-77280000D03*
X228320000Y-76480000D03*
X228320000Y-76480000D03*
X228320000Y-77280000D03*
D25*
X228320000Y-77930000D03*
X228320000Y-78930000D03*
X228320000Y-80430000D03*
X228320000Y-81430000D03*
D24*
X228320000Y-82080000D03*
X228320000Y-82880000D03*
D26*
X228895000Y-84000000D03*
D27*
X233075000Y-84000000D03*
D26*
X228895000Y-75360000D03*
D27*
X233075000Y-75360000D03*
%TD*%
D28*
%TO.C,J5*%
X200000000Y-78000000D03*
D29*
X202540000Y-78000000D03*
X200000000Y-80540000D03*
X202540000Y-80540000D03*
X200000000Y-83080000D03*
X202540000Y-83080000D03*
X200000000Y-85620000D03*
X202540000Y-85620000D03*
X200000000Y-88160000D03*
X202540000Y-88160000D03*
X200000000Y-90700000D03*
X202540000Y-90700000D03*
X200000000Y-93240000D03*
X202540000Y-93240000D03*
X200000000Y-95780000D03*
X202540000Y-95780000D03*
X200000000Y-98320000D03*
X202540000Y-98320000D03*
X200000000Y-100860000D03*
X202540000Y-100860000D03*
%TD*%
D13*
%TO.C,D2*%
X223100000Y-77062501D03*
X223100000Y-75187499D03*
%TD*%
D30*
%TO.C,SW1*%
X222000000Y-88500000D03*
X222000000Y-95500000D03*
%TD*%
D31*
%TO.C,J4*%
X233410000Y-104500000D03*
X233410000Y-100250000D03*
X233410000Y-108750000D03*
%TD*%
D32*
%TO.C,L2*%
X211875000Y-108149999D03*
X211875000Y-105350001D03*
%TD*%
D33*
%TO.C,R21*%
X228125000Y-105675000D03*
X228125000Y-107325000D03*
%TD*%
D34*
%TO.C,U4*%
X225725000Y-80162500D03*
D35*
X225800000Y-79625000D03*
D34*
X225725000Y-79087500D03*
X224025000Y-79087500D03*
D35*
X223950000Y-79625000D03*
D34*
X224025000Y-80162500D03*
%TD*%
D16*
%TO.C,C7*%
X211875000Y-101975000D03*
X211875000Y-103525000D03*
%TD*%
D13*
%TO.C,D3*%
X228500000Y-101625000D03*
X228500000Y-99749998D03*
%TD*%
M02*
